<svg class="w-10 h-10" viewBox="0 0 63 64" fill="none" xmlns="http://www.w3.org/2000/svg">
                          <path fill-rule="evenodd" clip-rule="evenodd" d="M31.4956 10.6449C19.0357 1.44856 7.24498 -2.11205 2.37878 2.717C-2.48741 7.54605 0.982743 19.3637 10.0833 31.8937C0.887024 44.3537 -2.67356 56.1444 2.15548 61.0106C6.98452 65.8767 18.8022 62.4066 31.3322 53.306C43.7921 62.5023 55.5828 66.0629 60.449 61.2339C65.3151 56.4048 61.845 44.5872 52.7445 32.0572C61.9408 19.5973 65.5014 7.80656 60.6723 2.94037C55.8433 -1.92581 44.0256 1.54432 31.4956 10.6449Z" fill="currentColor"/>
                          <path fill-rule="evenodd" clip-rule="evenodd" d="M31.4956 10.6449C19.0357 1.44856 7.24498 -2.11205 2.37878 2.717C-2.48741 7.54605 0.982743 19.3637 10.0833 31.8937C0.887024 44.3537 -2.67356 56.1444 2.15548 61.0106C6.98452 65.8767 18.8022 62.4066 31.3322 53.306C43.7921 62.5023 55.5828 66.0629 60.449 61.2339C65.3151 56.4048 61.845 44.5872 52.7445 32.0572C61.9408 19.5973 65.5014 7.80656 60.6723 2.94037C55.8433 -1.92581 44.0256 1.54432 31.4956 10.6449Z" fill="currentColor" fill-opacity="0.2"/>
                        </svg>